              ***********************************************

                PublicHash - Largest Bittorrent Community
      
                          http://publichash.com/
    
              ***********************************************
Source: NTSC DVDR-HaNdSoLoW - Thanks much

^^^Notes: Boom Boom POW!! We got the vobs passed to us for this, they was just a little dull so all i did was IVTC, crop the bars, resized, tweaked gamma, sat, brightness, contrast, levels and sharpen, GOT NICE, the audio came as 2ch so no complaining about it not being 6ch, enjoy 
http://www.imdb.com/title/tt2101341/

In New York City, a crime lord's right-hand man is seduced by a woman seeking retribution

General
Complete name: Dead Man Down 2013 DVDRip x264 AAC-OFFLiNE.mp4
Format: MPEG-4
Format profile: Base Media
Codec ID: isom
File size: 1.39 GiB
Duration: 1h 54mn
Overall bit rate mode: Variable
Overall bit rate: 1 745 Kbps
Encoded date: UTC 2013-06-04 11:30:10
Tagged date: UTC 2013-06-04 11:30:10

Video
ID: 1
Format: AVC
Format/Info: Advanced Video Codec
Format profile: High@L4.1
Format settings, CABAC: Yes
Format settings, ReFrames: 3 frames
Codec ID: avc1
Codec ID/Info: Advanced Video Coding
Duration: 1h 54mn
Bit rate mode: Variable
Bit rate: 1 605 Kbps
Maximum bit rate: 40.0 Mbps
Width: 720 pixels
Height: 304 pixels
Display aspect ratio: 2.35:1
Frame rate mode: Constant
Frame rate: 23.976 fps
Color space: YUV
Chroma subsampling: 4:2:0
Bit depth: 8 bits
Scan type: Progressive
Bits/(Pixel*Frame): 0.306
Stream size: 1.28 GiB (92%)
Writing library: x264 core 133 r2334 a3ac64b

Audio
ID: 2
Format: AAC
Format/Info: Advanced Audio Codec
Format profile: LC
Codec ID: 40
Duration: 1h 54mn
Bit rate mode: Variable
Bit rate: 137 Kbps
Maximum bit rate: 177 Kbps
Channel(s): 2 channels
Channel positions: Front: L R
Sampling rate: 48.0 KHz
Compression mode: Lossy
Stream size: 112 MiB (8%)
Language: English
Encoded date: UTC 2013-06-03 23:24:02
Tagged date: UTC 2013-06-04 11:30:44
Subtitles: English hardcoded for foreign parts only 
 
http://imgsure.com/?g=507875